<svg width="24" height="24" viewBox="0 0 24 24" fill="none" xmlns="http://www.w3.org/2000/svg">
<path d="M18.0605 9.64645L17.3534 8.93934C17.1581 8.74408 16.8416 8.74408 16.6463 8.93934L12.9998 12.5858V4C12.9998 3.44772 12.5521 3 11.9998 3C11.4476 3 10.9998 3.44772 10.9998 4V12.5858L7.3534 8.93934C7.15814 8.74408 6.84156 8.74408 6.6463 8.93934L5.93919 9.64645C5.74393 9.84171 5.74393 10.1583 5.93919 10.3536L11.6463 16.0607C11.8416 16.2559 12.1581 16.2559 12.3534 16.0607L18.0605 10.3536C18.2558 10.1583 18.2558 9.84171 18.0605 9.64645Z" fill="white"/>
<path d="M3.5 16C3.22386 16 3 16.2239 3 16.5V19C3 20.1046 3.89543 21 5 21H19C20.1046 21 21 20.1046 21 19V16.5C21 16.2239 20.7761 16 20.5 16H19.5C19.2239 16 19 16.2239 19 16.5V19H5V16.5C5 16.2239 4.77614 16 4.5 16H3.5Z" fill="white"/>
</svg>
